# xmcd CD database file
#
# Track frame offsets:
#	150
#	25937
#	59057
#	102201
#	126281
#	171565
#	211556
#	258414
#	282536
#	314053
#
# Disc length: 4527 seconds
#
# Revision: 0
# Processed by: cddbd v1.5.2PL0 Copyright (c) Steve Scherf et al.
# Submitted via: CDex 1.70beta2
#
DISCID=9c11ad0a
DTITLE=Diverse - CUE 149
DYEAR=2007
DGENRE=New Age
TTITLE0=Vitaly - Mechanical Feelings
TTITLE1=Rick Wakeman - Tuatara
TTITLE2=Pyramid Peak - Dive 2007
TTITLE3=Richard Bone - Toward Amitaf
TTITLE4=Move D and Pete Namlook - Exploration 2
TTITLE5=Grasow and Gleisberg and Baghiri - Enchanted Land
TTITLE6=Richard Bone - Part Four
TTITLE7=Robert Rich - Echo 2
TTITLE8=Christian Richet - Ballad Of The Statue
TTITLE9=Vitaly - Looking At The Stars
EXTD=YEAR: 2007
EXTT0=
EXTT1=
EXTT2=
EXTT3=
EXTT4=
EXTT5=
EXTT6=
EXTT7=
EXTT8=
EXTT9=
PLAYORDER=
